<svg preserveAspectRatio="none" width="100%" height="100%" overflow="visible" style="display: block;" viewBox="0 0 1920 64" fill="none" xmlns="http://www.w3.org/2000/svg">
<path id="pixel transition" d="M64.1006 32H32.0498V64H0V0H64.1006V32ZM192.301 64H160.25V32H96.1504V0H192.301V64ZM256.4 64H224.351V32H256.4V64ZM480.751 32H448.701V64H416.651V32H320.501V0H480.751V32ZM512.801 64H480.751V32H512.801V64ZM705.102 64H673.052V32H641.002V0H737.151V32H705.102V64ZM830.298 32H862.348V64H798.247V32H766.197V0H830.298V32ZM1022.6 64H990.548V32H1022.6V64ZM1150.8 32H1118.75V64H1086.7V32H1022.6V0H1150.8V32ZM1279 32H1246.95V64H1214.9V32H1182.85V0H1279V32ZM1375.15 32H1343.1V64H1279V0H1375.15V32ZM1535.4 32H1471.3V64H1407.2V32H1439.25V0H1535.4V32ZM1631.55 32H1599.5V64H1535.4V32H1567.45V0H1631.55V32ZM1759.75 64H1727.7V32H1695.65V0H1759.75V64ZM1920 64H1887.95V32H1791.8V0H1920V64ZM288.45 32H256.4V0H288.45V32ZM608.951 32H544.852V0H608.951V32ZM926.447 32H862.348V0H926.447V32ZM990.548 32H958.498V0H990.548V32Z" fill="var(--fill-0, #49A67F)"/>
</svg>
