<svg preserveAspectRatio="none" width="100%" height="100%" overflow="visible" style="display: block;" viewBox="0 0 42.814 1052" fill="none" xmlns="http://www.w3.org/2000/svg">
<g id="Group 1605">
<rect id="Rectangle 540" y="39.7557" width="42.8139" height="18.3488" fill="var(--fill-0, #05DF72)"/>
<rect id="Rectangle 541" y="79.5114" width="42.8139" height="18.3488" fill="var(--fill-0, #05DF72)"/>
<rect id="Rectangle 542" y="119.268" width="42.8139" height="18.3488" fill="var(--fill-0, #05DF72)"/>
<rect id="Rectangle 543" y="159.023" width="42.8139" height="18.3488" fill="var(--fill-0, #05DF72)"/>
<rect id="Rectangle 544" y="198.779" width="42.8139" height="18.3488" fill="var(--fill-0, #05DF72)"/>
<rect id="Rectangle 545" y="238.535" width="42.8139" height="18.3488" fill="var(--fill-0, #05DF72)"/>
<rect id="Rectangle 546" y="278.29" width="42.8139" height="18.3488" fill="var(--fill-0, #05DF72)"/>
<rect id="Rectangle 547" y="318.047" width="42.8139" height="18.3488" fill="var(--fill-0, #05DF72)"/>
<rect id="Rectangle 548" y="357.802" width="42.8139" height="18.3488" fill="var(--fill-0, #05DF72)"/>
<rect id="Rectangle 549" y="397.558" width="42.8139" height="18.3488" fill="var(--fill-0, #05DF72)"/>
<rect id="Rectangle 550" y="437.314" width="42.8139" height="18.3488" fill="var(--fill-0, #05DF72)"/>
<rect id="Rectangle 551" y="477.069" width="42.8139" height="18.3488" fill="var(--fill-0, #05DF72)"/>
<rect id="Rectangle 552" y="516.826" width="42.8139" height="18.3488" fill="var(--fill-0, #05DF72)"/>
<rect id="Rectangle 553" y="556.581" width="42.8139" height="18.3488" fill="var(--fill-0, #05DF72)"/>
<rect id="Rectangle 554" y="596.337" width="42.8139" height="18.3488" fill="var(--fill-0, #05DF72)"/>
<rect id="Rectangle 555" y="636.093" width="42.8139" height="18.3488" fill="var(--fill-0, #05DF72)"/>
<rect id="Rectangle 556" y="675.848" width="42.8139" height="18.3488" fill="var(--fill-0, #05DF72)"/>
<rect id="Rectangle 557" y="715.605" width="42.8139" height="18.3488" fill="var(--fill-0, #05DF72)"/>
<rect id="Rectangle 558" y="755.36" width="42.8139" height="18.3488" fill="var(--fill-0, #05DF72)"/>
<rect id="Rectangle 559" y="795.116" width="42.8139" height="18.3488" fill="var(--fill-0, #05DF72)"/>
<rect id="Rectangle 560" y="834.872" width="42.8139" height="18.3488" fill="var(--fill-0, #05DF72)"/>
<rect id="Rectangle 561" y="874.628" width="42.8139" height="18.3488" fill="var(--fill-0, #05DF72)"/>
<rect id="Rectangle 562" y="914.384" width="42.8139" height="18.3488" fill="var(--fill-0, #05DF72)"/>
<rect id="Rectangle 563" y="954.139" width="42.8139" height="18.3488" fill="var(--fill-0, #05DF72)"/>
<rect id="Rectangle 564" y="993.895" width="42.8139" height="18.3488" fill="var(--fill-0, #05DF72)"/>
<rect id="Rectangle 565" y="1033.65" width="42.8139" height="18.3488" fill="var(--fill-0, #05DF72)"/>
<path id="Rectangle 566" d="M0 4.08992e-06H42.8139V18.3488H0V4.08992e-06Z" fill="var(--fill-0, #05DF72)"/>
</g>
</svg>
