<svg width="73" height="69" viewBox="0 0 73 69" fill="none" xmlns="http://www.w3.org/2000/svg">
<path d="M24.333 45.817H-3.20372e-05V68.7254H24.333V45.817Z" fill="url(#paint0_linear_652_12426)"/>
<path d="M24.333 0H-3.20372e-05V22.9084H24.333V0Z" fill="url(#paint1_linear_652_12426)"/>
<path d="M24.333 22.9092H-3.20372e-05V45.8176H24.333V22.9092Z" fill="url(#paint2_linear_652_12426)"/>
<path d="M48.6665 45.817H24.3335V68.7254H48.6665V45.817Z" fill="url(#paint3_linear_652_12426)"/>
<path d="M72.9995 45.817H48.6665V68.7254H72.9995V45.817Z" fill="url(#paint4_linear_652_12426)"/>
<path d="M72.8735 45.9434V68.5996H48.7925V45.9434H72.8735ZM48.5405 45.9434V68.5996H24.4595V45.9434H48.5405ZM24.2065 45.9434V68.5996H0.126465V45.9434H24.2065ZM24.2065 23.0352V45.6904H0.126465V23.0352H24.2065ZM24.2065 0.125977V22.7822H0.126465V0.125977H24.2065Z" stroke="url(#paint5_radial_652_12426)" stroke-width="0.252316"/>
<defs>
<linearGradient id="paint0_linear_652_12426" x1="60.8321" y1="-22.9078" x2="57.2336" y2="204.346" gradientUnits="userSpaceOnUse">
<stop stop-color="#4285F4"/>
<stop offset="0.379808" stop-color="#4285F4" stop-opacity="0"/>
</linearGradient>
<linearGradient id="paint1_linear_652_12426" x1="60.8321" y1="-22.9078" x2="57.2336" y2="204.346" gradientUnits="userSpaceOnUse">
<stop stop-color="#4285F4"/>
<stop offset="0.182692" stop-color="#4285F4" stop-opacity="0"/>
</linearGradient>
<linearGradient id="paint2_linear_652_12426" x1="60.8321" y1="-22.9078" x2="57.2336" y2="204.346" gradientUnits="userSpaceOnUse">
<stop stop-color="#4285F4"/>
<stop offset="0.293269" stop-color="#4285F4" stop-opacity="0"/>
</linearGradient>
<linearGradient id="paint3_linear_652_12426" x1="60.8321" y1="-22.9078" x2="57.2336" y2="204.346" gradientUnits="userSpaceOnUse">
<stop stop-color="#4285F4"/>
<stop offset="0.379808" stop-color="#4285F4" stop-opacity="0"/>
</linearGradient>
<linearGradient id="paint4_linear_652_12426" x1="60.8321" y1="-22.9078" x2="57.2336" y2="204.346" gradientUnits="userSpaceOnUse">
<stop stop-color="#4285F4"/>
<stop offset="0.379808" stop-color="#4285F4" stop-opacity="0"/>
</linearGradient>
<radialGradient id="paint5_radial_652_12426" cx="0" cy="0" r="1" gradientUnits="userSpaceOnUse" gradientTransform="translate(24.333 34.3627) rotate(90) scale(80.1797 48.6665)">
<stop stop-color="white"/>
<stop offset="1" stop-color="white" stop-opacity="0"/>
</radialGradient>
</defs>
</svg>
