<svg width="19" height="67" viewBox="0 0 19 67" fill="none" xmlns="http://www.w3.org/2000/svg">
<path d="M9.14648 66.4023L17.9336 66.4023L17.9336 48.4971L9.14648 48.4971L9.14648 66.4023ZM9.14648 48.2568L17.9336 48.2568L17.9336 24.3076L9.14648 24.3076L9.14648 48.2568ZM9.14648 24.0684L17.9336 24.0684L17.9336 0.119141L9.14648 0.119141L9.14648 24.0684ZM0.119138 48.2568L8.90722 48.2568L8.90723 24.3076L0.11914 24.3076L0.119138 48.2568ZM0.11914 24.0684L8.90723 24.0684L8.90723 0.119141L0.119141 0.119141L0.11914 24.0684Z" fill="url(#paint0_linear_652_12432)"/>
<path d="M9.14648 66.4023L17.9336 66.4023L17.9336 48.4971L9.14648 48.4971L9.14648 66.4023ZM9.14648 48.2568L17.9336 48.2568L17.9336 24.3076L9.14648 24.3076L9.14648 48.2568ZM9.14648 24.0684L17.9336 24.0684L17.9336 0.119141L9.14648 0.119141L9.14648 24.0684ZM0.119138 48.2568L8.90722 48.2568L8.90723 24.3076L0.11914 24.3076L0.119138 48.2568ZM0.11914 24.0684L8.90723 24.0684L8.90723 0.119141L0.119141 0.119141L0.11914 24.0684Z" stroke="url(#paint1_radial_652_12432)" stroke-width="0.238915"/>
<defs>
<linearGradient id="paint0_linear_652_12432" x1="-18.0528" y1="36.2827" x2="45.1319" y2="36.2827" gradientUnits="userSpaceOnUse">
<stop stop-color="#4285F4"/>
<stop offset="1" stop-color="#264D8E" stop-opacity="0"/>
</linearGradient>
<radialGradient id="paint1_radial_652_12432" cx="0" cy="0" r="1" gradientTransform="matrix(-56.2014 55.6095 27.231 64.5453 45.1319 36.2827)" gradientUnits="userSpaceOnUse">
<stop stop-color="white"/>
<stop offset="1" stop-color="white" stop-opacity="0"/>
</radialGradient>
</defs>
</svg>
