<svg preserveAspectRatio="none" width="100%" height="100%" overflow="visible" style="display: block;" viewBox="0 0 66.8848 353.151" fill="none" xmlns="http://www.w3.org/2000/svg">
<g id="ladder asset">
<mask id="path-1-inside-1_0_4" fill="white">
<path d="M10.5312 41.2334H56.3535V0H66.8848V353.151H56.3535V297.924H10.5312V353.151H0V0H10.5312V41.2334ZM10.5312 287.003H56.3535V236.481H10.5312V287.003ZM10.5312 225.561H56.3535V175.039H10.5312V225.561ZM10.5312 164.118H56.3535V113.596H10.5312V164.118ZM10.5312 102.676H56.3535V52.1533H10.5312V102.676Z"/>
</mask>
<path d="M10.5312 41.2334H56.3535V0H66.8848V353.151H56.3535V297.924H10.5312V353.151H0V0H10.5312V41.2334ZM10.5312 287.003H56.3535V236.481H10.5312V287.003ZM10.5312 225.561H56.3535V175.039H10.5312V225.561ZM10.5312 164.118H56.3535V113.596H10.5312V164.118ZM10.5312 102.676H56.3535V52.1533H10.5312V102.676Z" fill="var(--fill-0, #2B7FFF)"/>
<path d="M10.5312 41.2334H7.53125V44.2334H10.5312V41.2334ZM56.3535 41.2334V44.2334H59.3535V41.2334H56.3535ZM56.3535 0V-3H53.3535V0H56.3535ZM66.8848 0H69.8848V-3H66.8848V0ZM66.8848 353.151V356.151H69.8848V353.151H66.8848ZM56.3535 353.151H53.3535V356.151H56.3535V353.151ZM56.3535 297.924H59.3535V294.924H56.3535V297.924ZM10.5312 297.924V294.924H7.53125V297.924H10.5312ZM10.5312 353.151V356.151H13.5312V353.151H10.5312ZM0 353.151H-3V356.151H0V353.151ZM0 0V-3H-3V0H0ZM10.5312 0H13.5312V-3H10.5312V0ZM10.5312 287.003H7.53125V290.003H10.5312V287.003ZM56.3535 287.003V290.003H59.3535V287.003H56.3535ZM56.3535 236.481H59.3535V233.481H56.3535V236.481ZM10.5312 236.481V233.481H7.53125V236.481H10.5312ZM10.5312 225.561H7.53125V228.561H10.5312V225.561ZM56.3535 225.561V228.561H59.3535V225.561H56.3535ZM56.3535 175.039H59.3535V172.039H56.3535V175.039ZM10.5312 175.039V172.039H7.53125V175.039H10.5312ZM10.5312 164.118H7.53125V167.118H10.5312V164.118ZM56.3535 164.118V167.118H59.3535V164.118H56.3535ZM56.3535 113.596H59.3535V110.596H56.3535V113.596ZM10.5312 113.596V110.596H7.53125V113.596H10.5312ZM10.5312 102.676H7.53125V105.676H10.5312V102.676ZM56.3535 102.676V105.676H59.3535V102.676H56.3535ZM56.3535 52.1533H59.3535V49.1533H56.3535V52.1533ZM10.5312 52.1533V49.1533H7.53125V52.1533H10.5312ZM10.5312 41.2334V44.2334H56.3535V41.2334V38.2334H10.5312V41.2334ZM56.3535 41.2334H59.3535V0H56.3535H53.3535V41.2334H56.3535ZM56.3535 0V3H66.8848V0V-3H56.3535V0ZM66.8848 0H63.8848V353.151H66.8848H69.8848V0H66.8848ZM66.8848 353.151V350.151H56.3535V353.151V356.151H66.8848V353.151ZM56.3535 353.151H59.3535V297.924H56.3535H53.3535V353.151H56.3535ZM56.3535 297.924V294.924H10.5312V297.924V300.924H56.3535V297.924ZM10.5312 297.924H7.53125V353.151H10.5312H13.5312V297.924H10.5312ZM10.5312 353.151V350.151H0V353.151V356.151H10.5312V353.151ZM0 353.151H3V0H0H-3V353.151H0ZM0 0V3H10.5312V0V-3H0V0ZM10.5312 0H7.53125V41.2334H10.5312H13.5312V0H10.5312ZM10.5312 287.003V290.003H56.3535V287.003V284.003H10.5312V287.003ZM56.3535 287.003H59.3535V236.481H56.3535H53.3535V287.003H56.3535ZM56.3535 236.481V233.481H10.5312V236.481V239.481H56.3535V236.481ZM10.5312 236.481H7.53125V287.003H10.5312H13.5312V236.481H10.5312ZM10.5312 225.561V228.561H56.3535V225.561V222.561H10.5312V225.561ZM56.3535 225.561H59.3535V175.039H56.3535H53.3535V225.561H56.3535ZM56.3535 175.039V172.039H10.5312V175.039V178.039H56.3535V175.039ZM10.5312 175.039H7.53125V225.561H10.5312H13.5312V175.039H10.5312ZM10.5312 164.118V167.118H56.3535V164.118V161.118H10.5312V164.118ZM56.3535 164.118H59.3535V113.596H56.3535H53.3535V164.118H56.3535ZM56.3535 113.596V110.596H10.5312V113.596V116.596H56.3535V113.596ZM10.5312 113.596H7.53125V164.118H10.5312H13.5312V113.596H10.5312ZM10.5312 102.676V105.676H56.3535V102.676V99.6758H10.5312V102.676ZM56.3535 102.676H59.3535V52.1533H56.3535H53.3535V102.676H56.3535ZM56.3535 52.1533V49.1533H10.5312V52.1533V55.1533H56.3535V52.1533ZM10.5312 52.1533H7.53125V102.676H10.5312H13.5312V52.1533H10.5312Z" fill="url(#paint0_linear_0_4)" mask="url(#path-1-inside-1_0_4)"/>
</g>
<defs>
<linearGradient id="paint0_linear_0_4" x1="33.4424" y1="0" x2="33.4424" y2="560.977" gradientUnits="userSpaceOnUse">
<stop stop-color="white"/>
<stop offset="1" stop-color="#193CB8"/>
</linearGradient>
</defs>
</svg>
