<svg width="19" height="67" viewBox="0 0 19 67" fill="none" xmlns="http://www.w3.org/2000/svg">
<path d="M8.90625 66.4023L0.119144 66.4023L0.119143 48.4971L8.90625 48.4971L8.90625 66.4023ZM8.90625 48.2568L0.119143 48.2568L0.119142 24.3076L8.90625 24.3076L8.90625 48.2568ZM8.90625 24.0684L0.119142 24.0684L0.119141 0.119141L8.90625 0.119141L8.90625 24.0684ZM17.9336 48.2568L9.14551 48.2568L9.14551 24.3076L17.9336 24.3076L17.9336 48.2568ZM17.9336 24.0684L9.14551 24.0684L9.14551 0.119141L17.9336 0.119141L17.9336 24.0684Z" fill="url(#paint0_linear_652_12446)"/>
<path d="M8.90625 66.4023L0.119144 66.4023L0.119143 48.4971L8.90625 48.4971L8.90625 66.4023ZM8.90625 48.2568L0.119143 48.2568L0.119142 24.3076L8.90625 24.3076L8.90625 48.2568ZM8.90625 24.0684L0.119142 24.0684L0.119141 0.119141L8.90625 0.119141L8.90625 24.0684ZM17.9336 48.2568L9.14551 48.2568L9.14551 24.3076L17.9336 24.3076L17.9336 48.2568ZM17.9336 24.0684L9.14551 24.0684L9.14551 0.119141L17.9336 0.119141L17.9336 24.0684Z" stroke="url(#paint1_radial_652_12446)" stroke-width="0.238915"/>
<defs>
<linearGradient id="paint0_linear_652_12446" x1="36.1055" y1="36.2827" x2="-27.0792" y2="36.2827" gradientUnits="userSpaceOnUse">
<stop stop-color="#4285F4"/>
<stop offset="1" stop-color="#264D8E" stop-opacity="0"/>
</linearGradient>
<radialGradient id="paint1_radial_652_12446" cx="0" cy="0" r="1" gradientTransform="matrix(56.2014 55.6095 -27.231 64.5453 -27.0792 36.2827)" gradientUnits="userSpaceOnUse">
<stop stop-color="white"/>
<stop offset="1" stop-color="white" stop-opacity="0"/>
</radialGradient>
</defs>
</svg>
