<svg width="64" height="40" viewBox="0 0 64 40" fill="none" xmlns="http://www.w3.org/2000/svg">
<path d="M32 36L0 4H64L32 36Z" fill="#F0B100"/>
<path d="M36 40H28V36H36V40ZM28 36H24V32H28V36ZM40 36H36V32H40V36ZM24 32H20V28H24V32ZM44 32H40V28H44V32ZM20 28H16V24H20V28ZM48 28H44V24H48V28ZM16 24H12V20H16V24ZM52 24H48V20H52V24ZM12 20H8V16H12V20ZM56 20H52V16H56V20ZM8 16H4V12H8V16ZM60 16H56V12H60V16ZM64 12H60V4H4V12H0V0H64V12Z" fill="#202124"/>
<path d="M32 36H28V32H32V36ZM28 32H24V28H28V32ZM24 28H20V24H24V28ZM20 24H16V20H20V24ZM16 20H12V16H16V20ZM12 16H8V12H12V16ZM8 12H4V4H8V12Z" fill="#FEFCE8"/>
<path d="M36 36H32V32H36V36ZM40 32H36V28H40V32ZM44 28H40V24H44V28ZM48 24H44V20H48V24ZM52 20H48V16H52V20ZM56 16H52V12H56V16ZM60 12H56V4H60V12Z" fill="#894B00"/>
</svg>
