<svg width="1280" height="849" viewBox="0 0 1280 849" fill="none" xmlns="http://www.w3.org/2000/svg">
<rect x="1200.83" y="810" width="12.8314" height="12.8314" fill="white"/>
<rect x="1200.83" y="835.662" width="12.8314" height="12.8314" fill="white"/>
<rect x="1188" y="822.828" width="12.8314" height="12.8314" fill="white"/>
<rect x="1213.67" y="822.828" width="12.8314" height="12.8314" fill="white"/>
<rect x="366.828" y="792" width="12.8314" height="12.8314" fill="white"/>
<rect x="366.828" y="817.664" width="12.8314" height="12.8314" fill="white"/>
<rect x="354" y="804.832" width="12.8314" height="12.8314" fill="white"/>
<rect x="379.665" y="804.832" width="12.8314" height="12.8314" fill="white"/>
<rect x="541.039" y="224" width="9.62354" height="20.049" fill="white"/>
<rect x="541.039" y="252.873" width="9.62354" height="20.049" fill="white"/>
<rect x="525" y="244.051" width="16.0392" height="8.82157" fill="white"/>
<rect x="550.665" y="244.051" width="16.0392" height="8.82157" fill="white"/>
<rect x="1189" y="17" width="18" height="17" fill="white"/>
<rect x="67" y="789" width="11" height="10" fill="white"/>
<rect x="171" y="218" width="18" height="18" fill="white"/>
<path opacity="0.2" d="M46.209 20.7285H91.8018V36.3594H184V65.5078H63.5996V68.6621H-149V39.5137H-50.084V20.7285H-4.49121V0H46.209V20.7285Z" fill="#F5F5F5"/>
<path opacity="0.2" d="M1254.21 187.729H1299.8V203.359H1392V232.508H1271.6V235.662H1059V206.514H1157.92V187.729H1203.51V167H1254.21V187.729Z" fill="#F5F5F5"/>
<path opacity="0.2" d="M958.209 780.729H1003.8V796.359H1096V825.508H975.6V828.662H763V799.514H861.916V780.729H907.509V760H958.209V780.729Z" fill="#F5F5F5"/>
</svg>
