<svg width="496" height="64" viewBox="0 0 496 64" fill="none" xmlns="http://www.w3.org/2000/svg">
<path d="M4 32L36 0V64L4 32Z" fill="#F0B100"/>
<path d="M0 36V28H4V36H0ZM4 28V24H8V28H4ZM4 40V36H8V40H4ZM8 24V20H12V24H8ZM8 44V40H12V44H8ZM12 20V16H16V20H12ZM12 48V44H16V48H12ZM16 16V12H20V16H16ZM16 52V48H20V52H16ZM20 12V8H24V12H20ZM20 56V52H24V56H20ZM24 8V4H28V8H24ZM24 60V56H28V60H24ZM28 64V60H36V4H28V0H40V64H28Z" fill="#202124"/>
<path d="M4 32V28H8V32H4ZM8 28V24H12V28H8ZM12 24V20H16V24H12ZM16 20V16H20V20H16ZM20 16V12H24V16H20ZM24 12V8H28V12H24ZM28 8V4H36V8H28Z" fill="#FEFCE8"/>
<path d="M4 36V32H8V36H4ZM8 40V36H12V40H8ZM12 44V40H16V44H12ZM16 48V44H20V48H16ZM20 52V48H24V52H20ZM24 56V52H28V56H24ZM28 60V56H36V60H28Z" fill="#894B00"/>
<path d="M492 32L460 0V64L492 32Z" fill="#F0B100"/>
<path d="M496 36V28H492V36H496ZM492 28V24H488V28H492ZM492 40V36H488V40H492ZM488 24V20H484V24H488ZM488 44V40H484V44H488ZM484 20V16H480V20H484ZM484 48V44H480V48H484ZM480 16V12H476V16H480ZM480 52V48H476V52H480ZM476 12V8H472V12H476ZM476 56V52H472V56H476ZM472 8V4H468V8H472ZM472 60V56H468V60H472ZM468 64V60H460V4H468V0H456V64H468Z" fill="#202124"/>
<path d="M492 32V28H488V32H492ZM488 28V24H484V28H488ZM484 24V20H480V24H484ZM480 20V16H476V20H480ZM476 16V12H472V16H476ZM472 12V8H468V12H472ZM468 8V4H460V8H468Z" fill="#FEFCE8"/>
<path d="M492 36V32H488V36H492ZM488 40V36H484V40H488ZM484 44V40H480V44H484ZM480 48V44H476V48H480ZM476 52V48H472V52H476ZM472 56V52H468V56H472ZM468 60V56H460V60H468Z" fill="#894B00"/>
</svg>
