<svg width="1280" height="64" viewBox="0 0 1280 64" fill="none" xmlns="http://www.w3.org/2000/svg">
<path d="M-255.899 32H-287.95V64H-320V0H-255.899V32ZM-127.699 64H-159.75V32H-223.85V0H-127.699V64ZM-63.5996 64H-95.6494V32H-63.5996V64ZM160.751 32H128.701V64H96.6514V32H0.500977V0H160.751V32ZM192.801 64H160.751V32H192.801V64ZM385.102 64H353.052V32H321.002V0H417.151V32H385.102V64ZM510.298 32H542.348V64H478.247V32H446.197V0H510.298V32ZM702.598 64H670.548V32H702.598V64ZM830.798 32H798.748V64H766.698V32H702.598V0H830.798V32ZM958.998 32H926.948V64H894.898V32H862.849V0H958.998V32ZM1055.15 32H1023.1V64H958.999V0H1055.15V32ZM1215.4 32H1151.3V64H1087.2V32H1119.25V0H1215.4V32ZM1311.55 32H1279.5V64H1215.4V32H1247.45V0H1311.55V32ZM1439.75 64H1407.7V32H1375.65V0H1439.75V64ZM1600 64H1567.95V32H1471.8V0H1600V64ZM-31.5498 32H-63.5996V0H-31.5498V32ZM288.951 32H224.852V0H288.951V32ZM606.447 32H542.348V0H606.447V32ZM670.548 32H638.498V0H670.548V32Z" fill="#D0F4C1"/>
</svg>
