<svg preserveAspectRatio="none" width="100%" height="100%" overflow="visible" style="display: block;" viewBox="0 0 326.158 154.15" fill="none" xmlns="http://www.w3.org/2000/svg">
<g id="Union" filter="url(#filter0_d_0_180)">
<path d="M287.348 9.6C293.299 9.6 298.425 13.7952 299.602 19.6283L307.268 57.6283C307.566 59.1048 307.59 60.5627 307.382 61.9555C307.497 62.6363 307.558 63.3357 307.558 64.0492V114.05C307.558 120.954 301.962 126.55 295.058 126.55H31.1C24.1967 126.55 18.6001 120.954 18.6 114.05V64.0492C18.6 62.6478 18.8308 61.3002 19.2563 60.0424C19.2622 59.151 19.3633 58.2433 19.5707 57.3305L28.2045 19.3305C29.4976 13.6391 34.5575 9.60007 40.3939 9.6H287.348Z" fill="url(#paint0_linear_0_180)"/>
<path d="M299.602 19.6283L302.053 19.1339V19.1339L299.602 19.6283ZM307.268 57.6283L309.719 57.134L309.719 57.1339L307.268 57.6283ZM307.382 61.9555L304.91 61.5857L304.851 61.9791L304.917 62.3712L307.382 61.9555ZM307.558 64.0492H310.058V64.0492H307.558ZM307.558 114.05H310.058V114.05H307.558ZM295.058 126.55V124.05V124.05V126.55ZM31.1 126.55L31.0999 129.05H31.1V126.55ZM18.6 114.05H16.1V114.05L18.6 114.05ZM18.6 64.0492H16.1V64.0492H18.6ZM19.2563 60.0424L21.6245 60.8433L21.7535 60.4619L21.7562 60.0592L19.2563 60.0424ZM19.5707 57.3305L17.1328 56.7766L17.1328 56.7766L19.5707 57.3305ZM28.2045 19.3305L25.7666 18.7766L25.7666 18.7766L28.2045 19.3305ZM40.3939 9.6V7.1H40.3939L40.3939 9.6ZM287.348 9.6V12.1C292.109 12.1 296.21 15.4563 297.151 20.1227L299.602 19.6283L302.053 19.1339C300.64 12.1341 294.489 7.1 287.348 7.1V9.6ZM299.602 19.6283L297.151 20.1227L304.817 58.1227L307.268 57.6283L309.719 57.1339L302.053 19.1339L299.602 19.6283ZM307.268 57.6283L304.817 58.1227C305.057 59.3103 305.076 60.4757 304.91 61.5857L307.382 61.9555L309.855 62.3252C310.105 60.6496 310.075 58.8993 309.719 57.134L307.268 57.6283ZM307.382 61.9555L304.917 62.3712C305.009 62.9181 305.058 63.4784 305.058 64.0492H307.558H310.058C310.058 63.193 309.985 62.3546 309.847 61.5397L307.382 61.9555ZM307.558 64.0492H305.058V114.05H307.558H310.058V64.0492H307.558ZM307.558 114.05H305.058C305.058 119.573 300.581 124.05 295.058 124.05V126.55V129.05C303.342 129.05 310.058 122.334 310.058 114.05H307.558ZM295.058 126.55V124.05H31.1V126.55V129.05H295.058V126.55ZM31.1 126.55L31.1001 124.05C25.5773 124.05 21.1001 119.573 21.1 114.05L18.6 114.05L16.1 114.05C16.1001 122.334 22.816 129.05 31.0999 129.05L31.1 126.55ZM18.6 114.05H21.1V64.0492H18.6H16.1V114.05H18.6ZM18.6 64.0492H21.1C21.1 62.9239 21.2851 61.8467 21.6245 60.8433L19.2563 60.0424L16.888 59.2414C16.3766 60.7537 16.1 62.3716 16.1 64.0492H18.6ZM19.2563 60.0424L21.7562 60.0592C21.761 59.346 21.8418 58.6184 22.0086 57.8843L19.5707 57.3305L17.1328 56.7766C16.8848 57.8682 16.7635 58.956 16.7563 60.0256L19.2563 60.0424ZM19.5707 57.3305L22.0086 57.8844L30.6424 19.8844L28.2045 19.3305L25.7666 18.7766L17.1328 56.7766L19.5707 57.3305ZM28.2045 19.3305L30.6424 19.8844C31.6769 15.3313 35.7247 12.1001 40.394 12.1L40.3939 9.6L40.3939 7.1C33.3902 7.10008 27.3184 11.9468 25.7666 18.7766L28.2045 19.3305ZM40.3939 9.6V12.1H287.348V9.6V7.1H40.3939V9.6Z" fill="var(--stroke-0, white)"/>
</g>
<defs>
<filter id="filter0_d_0_180" x="0" y="0" width="326.158" height="154.15" filterUnits="userSpaceOnUse" color-interpolation-filters="sRGB">
<feFlood flood-opacity="0" result="BackgroundImageFix"/>
<feColorMatrix in="SourceAlpha" type="matrix" values="0 0 0 0 0 0 0 0 0 0 0 0 0 0 0 0 0 0 127 0" result="hardAlpha"/>
<feOffset dy="9"/>
<feGaussianBlur stdDeviation="8.05"/>
<feComposite in2="hardAlpha" operator="out"/>
<feColorMatrix type="matrix" values="0 0 0 0 0 0 0 0 0 0 0 0 0 0 0 0 0 0 0.5 0"/>
<feBlend mode="normal" in2="BackgroundImageFix" result="effect1_dropShadow_0_180"/>
<feBlend mode="normal" in="SourceGraphic" in2="effect1_dropShadow_0_180" result="shape"/>
</filter>
<linearGradient id="paint0_linear_0_180" x1="18.657" y1="41.4374" x2="321.956" y2="65.4892" gradientUnits="userSpaceOnUse">
<stop stop-color="#0A162A"/>
<stop offset="0.5" stop-color="#16315D"/>
<stop offset="1" stop-color="#0A162A"/>
</linearGradient>
</defs>
</svg>
